<svg width="76" height="100" viewBox="0 0 76 100" xmlns="http://www.w3.org/2000/svg">
    <g fill-rule="nonzero" fill="none">
        <path d="M61.08 46.861c-4.674 0-8.465-3.787-8.465-8.461a8.466 8.466 0 0 1 8.465-8.465 8.466 8.466 0 0 1 8.465 8.465c0 4.674-3.792 8.461-8.465 8.461m0-22.704c-7.864 0-14.24 6.376-14.24 14.24 0 7.863 6.376 14.239 14.24 14.239 7.863 0 14.24-6.376 14.24-14.24 0-7.863-6.377-14.24-14.24-14.24M13.596 30.17H2.68v-5.616h19.184v3.837l-6.566 6.763c3.956.394 6.805 3.678 6.805 7.951 0 5.578-4.273 9.534-10.206 9.534-5.496 0-9.65-3.559-10.008-8.584h5.855c.316 1.544 1.74 2.887 4.153 2.887 2.413 0 4.192-1.66 4.192-3.995 0-3.323-3.798-4.47-7.793-3.323v-3.756l5.3-5.697zM38.632 42.905c0-2.374-1.86-4.192-4.273-4.192-2.412 0-4.153 1.818-4.153 4.192s1.86 4.153 4.192 4.153c2.331 0 4.23-1.818 4.23-4.153m5.698.039c0 5.3-4.509 9.692-9.928 9.692-5.42 0-9.928-4.393-9.928-9.692 0-1.819.71-4.312 2.215-6.725l7.238-11.668h6.685l-5.855 9.217c.236-.038.475-.038.71-.038 5.065 0 8.86 3.917 8.86 9.217M74.922 61.315 58.783 72.59h16.139v5.852H47.234V73.54l16.139-11.353H47.234v-5.855h27.688zM47.234 83.031V100h5.616V88.883h5.856v9.89h5.616v-9.89h4.983V100h5.617V83.031z" fill="#000"/>
        <path fill="#FD7740" d="m3.148 5.092 1.498 9.788h.25l1.972-9.788h4.344l1.972 9.788h.25l1.498-9.788h3.144l-2.444 12.386h-4.494L9.165 7.691h-.25l-1.973 9.787H2.448L0 5.092z"/>
        <g fill="#FD7740">
            <path d="M27.888 10.062c-.176-1.622-1.224-2.62-2.845-2.62-1.772 0-2.747 1.048-2.947 2.62h5.792zm-2.82-5.318c3.594 0 6.017 2.522 6.017 6.34v1.176H22.07c.123 1.596 1.4 2.873 3.148 2.873 1.748 0 2.62-.974 3.144-1.9l2.521 1.548c-.7.95-2.173 3.046-5.669 3.046-3.794 0-6.365-2.796-6.365-6.644 0-3.847 2.57-6.442 6.218-6.442M37.549 15.432c1.997 0 3.27-1.298 3.27-3.148v-.323l-3.545.548c-1.125.176-1.747.675-1.747 1.474 0 .798.622 1.449 2.022 1.449m.999-10.688c3.246 0 5.366 1.822 5.366 4.92v7.814H40.87v-1.596h-.25c-.401.724-1.375 1.948-3.795 1.948-2.546 0-4.445-1.322-4.445-3.671 0-2.35 1.948-3.422 4.544-3.82l3.896-.597v-.3c0-1.199-.7-2.197-2.398-2.197-1.699 0-2.595.998-2.898 2.398l-3.02-1.023c.847-2.047 2.795-3.872 6.041-3.872"/>
        </g>
        <path fill="#FD7740" d="M46.562 0h3.144v17.478h-3.144zM51.205 5.092h3.094V1.248h3.148v3.844h3.397v2.546h-3.397v6.542c0 .5.25.749.7.749h2.398v2.546H57.05c-1.649 0-2.746-1.097-2.746-2.796V7.64h-3.095V5.091h-.003zM66.084 0v6.84h.25c.475-.95 1.498-1.948 3.77-1.948 2.898 0 4.818 2.12 4.818 5.194v7.392h-3.148v-7.24c0-1.875-.95-2.796-2.648-2.796-1.924 0-3.045 1.346-3.045 3.646v6.39h-3.148V0H66.084z"/>
    </g>
</svg>
