<svg width="70" height="68" viewBox="0 0 70 68" xmlns="http://www.w3.org/2000/svg">
    <g fill="#FFF" fill-rule="nonzero">
        <path d="M21.116 13.315c0 4.37-3.523 7.912-7.87 7.912-4.346 0-7.873-3.542-7.873-7.912s3.524-7.913 7.873-7.913c4.35 0 7.87 3.543 7.87 7.913M0 13.315c0 7.354 5.931 13.314 13.243 13.314s13.243-5.96 13.243-13.314C26.486 5.96 20.556 0 13.243 0 5.931 0 0 5.96 0 13.315M5.58 56.98v10.272H.473v-18.05h3.49l6.151 6.178c.359-3.723 3.346-6.401 7.231-6.401 5.073 0 8.669 4.02 8.669 9.604 0 5.175-3.237 9.081-7.808 9.417v-5.507c1.403-.297 2.625-1.639 2.625-3.907s-1.509-3.945-3.632-3.945c-3.022 0-4.066 3.574-3.022 7.333H10.76l-5.18-4.988v-.006zM17.163 32.556c-2.158 0-3.814 1.78-3.814 4.092 0 2.312 1.656 3.98 3.814 3.98 2.158 0 3.777-1.78 3.777-4.016 0-2.236-1.656-4.052-3.777-4.052m.038-5.455c4.82 0 8.813 4.318 8.813 9.51s-3.995 9.51-8.813 9.51c-1.656 0-3.92-.682-6.116-2.12L.473 37.071v-6.404l8.383 5.606c-.035-.227-.035-.453-.035-.683 0-4.85 3.562-8.486 8.383-8.486M33.803 0l10.128 14.966V0h5.258v25.678h-4.405L34.585 10.712v14.966h-5.26V0zM53.919 26.63H70v-5.21H59.466v-5.428h9.37V10.78h-9.37V6.16H70V.95H53.919z"/>
    </g>
</svg>
