<svg width="75" height="100" viewBox="0 0 75 100" xmlns="http://www.w3.org/2000/svg">
    <g fill-rule="nonzero" fill="none">
        <g fill="#000">
            <path d="M59.942 46.19a8.569 8.569 0 0 1-8.569-8.569 8.57 8.57 0 1 1 17.137 0 8.567 8.567 0 0 1-8.568 8.569m0-22.991c-7.965 0-14.419 6.458-14.419 14.419 0 7.96 6.454 14.418 14.419 14.418 7.964 0 14.418-6.457 14.418-14.418 0-7.961-6.454-14.419-14.418-14.419M11.86 29.289H.805v-5.687h19.426v3.885l-6.65 6.85c4.007.399 6.89 3.725 6.89 8.05 0 5.65-4.327 9.653-10.337 9.653C4.565 52.04.361 48.436 0 43.346h5.926c.32 1.563 1.764 2.923 4.205 2.923 2.44 0 4.246-1.68 4.246-4.044 0-3.364-3.843-4.528-7.892-3.364v-3.806l5.368-5.766h.007zM37.211 42.187c0-2.403-1.881-4.247-4.326-4.247-2.444 0-4.207 1.844-4.207 4.247 0 2.402 1.881 4.204 4.246 4.204 2.364 0 4.284-1.844 4.284-4.204m5.767.041c0 5.368-4.566 9.812-10.055 9.812s-10.054-4.448-10.054-9.812c0-1.843.722-4.364 2.242-6.808l7.33-11.815h6.77l-5.927 9.333c.24-.039.48-.039.722-.039 5.128 0 8.972 3.965 8.972 9.333"/>
        </g>
        <path fill="#000" d="M45.922 55.782v5.927h16.342L45.922 73.204v4.968h28.039v-5.93H57.616L73.96 60.827v-5.045zM45.922 82.814V100h5.687V88.744h5.927v10.013h5.69V88.744h5.045V100h5.69V82.814z"/>
        <g fill="#5A32FF">
            <path d="M16.849 14.363c2.024 0 3.312-1.316 3.312-3.187v-.33l-3.59.556c-1.139.177-1.77.684-1.77 1.492 0 .81.631 1.466 2.048 1.466m1.01-10.822c3.288 0 5.437 1.847 5.437 4.982v7.912h-3.083v-1.618h-.253c-.406.733-1.392 1.972-3.844 1.972-2.58 0-4.5-1.34-4.5-3.718S13.59 9.603 16.218 9.2l3.944-.607V8.29c0-1.215-.708-2.226-2.427-2.226-1.718 0-2.628 1.01-2.933 2.427l-3.06-1.038c.862-2.073 2.834-3.92 6.118-3.92M30.782 3.545c2.933 0 5.107 1.44 6.322 3.767L34.27 8.45c-.656-1.948-2.174-2.427-3.437-2.427-1.264 0-2.049.43-2.049 1.24 0 .808.656 1.138 2.024 1.416l1.264.253c2.58.507 4.881 1.288 4.881 3.868s-2.274 3.996-5.36 3.996c-3.087 0-5.538-1.417-6.572-4.121l2.881-1.01c.58 2.1 2.073 2.655 3.642 2.655 1.57 0 2.326-.555 2.326-1.364s-.708-1.062-2.173-1.364l-1.264-.254c-2.628-.531-4.728-1.593-4.728-3.968s2.149-3.82 5.082-3.82M43.749 3.545c2.934 0 5.107 1.44 6.322 3.767L47.238 8.45c-.656-1.948-2.173-2.427-3.437-2.427-1.264 0-2.048.43-2.048 1.24 0 .808.66 1.138 2.024 1.416l1.263.253c2.58.507 4.878 1.288 4.878 3.868s-2.274 3.996-5.36 3.996c-3.087 0-5.538-1.417-6.572-4.121l2.881-1.01c.58 2.1 2.073 2.655 3.642 2.655 1.57 0 2.326-.555 2.326-1.364s-.708-1.062-2.173-1.364l-1.264-.254c-2.628-.531-4.728-1.593-4.728-3.968s2.149-3.82 5.082-3.82M60.435 8.93c-.177-1.643-1.24-2.656-2.882-2.656-1.795 0-2.78 1.062-2.982 2.656h5.864zm-2.858-5.385c3.642 0 6.093 2.552 6.093 6.423v1.187h-9.127c.125 1.618 1.416 2.91 3.184 2.91 1.767 0 2.656-.987 3.187-1.92l2.552 1.565c-.709.962-2.198 3.087-5.74 3.087-3.843 0-6.447-2.833-6.447-6.725 0-3.892 2.604-6.524 6.295-6.524M64.202 3.895h3.135V0h3.187v3.895h3.437v2.58h-3.437v6.624c0 .507.253.757.708.757h2.427v2.58h-3.538c-1.67 0-2.78-1.111-2.78-2.833V6.472h-3.136v-2.58l-.003.003z"/>
        </g>
    </g>
</svg>
