<svg width="55" height="53" viewBox="0 0 55 53" xmlns="http://www.w3.org/2000/svg">
    <g fill="#000" fill-rule="nonzero" stroke="#000" stroke-width=".88">
        <path d="M46.644 25.172c-.06.058-.12.117-.12.175-3.236 4.037-8.87 10.706-10.308 11.467-.24.117-2.45 1.468-5.334 1.163-1.923-.203-3.213-.59-3.872-1.163 4.62-.39 7.708-1.033 9.266-1.93 2.277-1.326 3.2-3.589 2.77-6.787l-26.279-.059L1 39.563 14.101 52l6.113-6.294c8.627 1.737 15.053 1.566 19.277-.51 4.224-2.078 8.872-7.432 13.944-16.064.3-.234 1.365-1.758-.558-3.844-3.345-2.869-6.113-.233-6.233-.116zM39.41 42.627c-3.4 2.043-10.127 2.308-20.18.797l-5.129 5.383-9.709-9.244 9.29-9.068h23.133c-.12.76-.539 1.755-1.737 2.457-1.901 1.079-6.064 1.819-12.488 2.22 1.783 3.401 4.536 5.102 8.26 5.102 4.496 0 5.605-.958 6.566-1.413 2.217-1.229 9.289-9.946 10.907-11.993.3-.234 1.311-1.444 2.649-.356 1.337 1.087.108 2.233.108 2.41-.06.058-6.568 10.641-11.67 13.705zM27.825 23.29c8.092-5.178 12.187-10.092 12.286-14.743.06-2.75-1.259-5.206-3.596-6.727-3.056-1.99-6.832.175-8.75 1.462-1.798-1.287-5.454-3.335-8.45-1.638-.06.059-.18.059-.24.117-2.338 1.521-3.596 3.92-3.596 6.728.211 4.916 4.327 9.85 12.346 14.8zm-7.31-19.54c.419-.292.898-.41 1.438-.41 1.478-.038 3.475.8 5.992 2.515 3.395-2.417 5.852-3.139 7.37-2.164 1.619 1.053 2.518 2.808 2.518 4.74-.059 2.34-1.437 6.844-9.947 12.285-8.51-5.441-9.889-10.004-9.889-12.227 0-1.93.899-3.686 2.517-4.739z"/>
    </g>
</svg>
