<svg width="40" height="40" viewBox="0 0 40 40" xmlns="http://www.w3.org/2000/svg">
    <g fill="none" fill-rule="evenodd">
        <path d="M0 0h40v40H0z"/>
        <g fill="#000" fill-rule="nonzero">
            <path d="M19.814 7.55c6.216.482 11.111 5.787 11.111 12.26 0 6.73-5.289 12.195-11.851 12.297v.001H5v-3.784h13.703v-.002c.062.002.124.002.186.002 4.602 0 8.333-3.811 8.333-8.513 0-4.382-3.24-7.992-7.407-8.462v2.219L16.11 9.784 19.815 6v1.55zM9.548 27.567a12.411 12.411 0 0 1-2.696-7.757c0-6.167 4.443-11.273 10.237-12.161L15 9.784l1.757 1.794c-3.57.963-6.201 4.284-6.201 8.233 0 3.449 2.007 6.419 4.893 7.757h-5.9zM31.296 34v-7.568L35 30.216 31.296 34z"/>
            <path d="M29.103 27.6h3.529v4h-8.685v-.134a13.09 13.09 0 0 0 5.156-3.866z"/>
        </g>
    </g>
</svg>
