<svg width="40" height="40" viewBox="0 0 40 40" xmlns="http://www.w3.org/2000/svg">
    <g fill="none" fill-rule="evenodd">
        <path d="M0 0h40v40H0z"/>
        <g fill="#000" fill-rule="nonzero" stroke="#000" stroke-width=".648">
            <path d="M27.452 13.526c-2.145-1.791-4.922-2.667-7.741-2.508-2.861.16-5.47 1.393-7.363 3.423-1.43 1.552-2.356 3.462-2.609 5.531-.42 3.343 1.01 6.646 3.787 8.795.757.597 1.22 1.473 1.22 2.388V38h11.191v-6.726c0-.915.421-1.79 1.178-2.387 2.188-1.711 3.577-4.139 3.83-6.845.294-2.706-.59-5.333-2.4-7.402a5.605 5.605 0 0 0-1.093-1.115zm-3.955 18.982v3.144h-6.269v-3.144h6.27zm-3.155-12.297c.462 0 .841.16 1.178.478.294.318.505.716.505 1.154 0 .836-.758 1.552-1.683 1.552-.463 0-.842-.16-1.178-.478-.295-.278-.505-.676-.505-1.114a1.671 1.671 0 0 1 1.683-1.592zm1.262 9.95v-4.617c1.893-.557 3.114-2.308 2.86-4.218-.294-2.15-2.355-3.662-4.627-3.423a4.217 4.217 0 0 0-2.777 1.472 3.811 3.811 0 0 0-.842 2.906c.21 1.552 1.347 2.825 2.861 3.263v4.616h-1.977a5.354 5.354 0 0 0-2.02-3.223c-2.104-1.632-3.197-4.179-2.86-6.726.504-4.258 4.585-7.282 9.087-6.805 2.188.239 4.123 1.274 5.47 2.865 1.346 1.632 1.977 3.662 1.725 5.691-.252 2.03-1.304 3.82-2.945 5.094h-.042c-.968.796-1.64 1.87-1.893 3.064h-2.02v.04zM19 2h2v6.429h-2zM33.275 5.857 35 7.521l-4.942 4.765-1.725-1.664zM6.718 5.857l4.949 4.772-1.718 1.657L5 7.513z"/>
        </g>
    </g>
</svg>
