<svg width="45" height="49" viewBox="0 0 45 49" xmlns="http://www.w3.org/2000/svg">
    <path d="M30 16.897c-3.461 0-6.382 2.324-7.3 5.491H0v4.224h22.7c.918 3.167 3.839 5.492 7.3 5.492 3.46 0 6.382-2.324 7.3-5.492H45v-4.224h-7.7c-.917-3.166-3.84-5.491-7.3-5.491zm0 10.982a3.383 3.383 0 0 1-3.38-3.379A3.383 3.383 0 0 1 30 21.12a3.383 3.383 0 0 1 3.38 3.38A3.384 3.384 0 0 1 30 27.88zm-15 5.914c-3.46 0-6.382 2.324-7.3 5.491H0v4.224h7.7C8.617 46.675 11.54 49 15 49c3.461 0 6.382-2.324 7.3-5.492H45v-4.224H22.3c-.917-3.166-3.84-5.491-7.3-5.491zm0 10.983a3.383 3.383 0 0 1-3.38-3.38 3.383 3.383 0 0 1 3.38-3.38 3.383 3.383 0 0 1 3.38 3.38 3.384 3.384 0 0 1-3.38 3.38zm7.3-39.284C21.382 2.325 18.46 0 15 0c-3.461 0-6.383 2.324-7.301 5.492H0v4.224h7.7c.918 3.166 3.84 5.491 7.3 5.491 3.461 0 6.382-2.324 7.3-5.491H45V5.492H22.3zM15 10.983a3.383 3.383 0 0 1-3.38-3.38A3.383 3.383 0 0 1 15 4.225a3.383 3.383 0 0 1 3.38 3.38A3.384 3.384 0 0 1 15 10.983z" fill="#000" fill-rule="nonzero"/>
</svg>
