<svg width="30" height="30" viewBox="0 0 30 30" fill="none" xmlns="http://www.w3.org/2000/svg"><path d="M26.25 22.5V18.75C26.25 18.5014 26.1512 18.2629 25.9754 18.0871C25.7996 17.9113 25.5611 17.8125 25.3125 17.8125C25.0639 17.8125 24.8254 17.9113 24.6496 18.0871C24.4738 18.2629 24.375 18.5014 24.375 18.75V22.5C24.375 22.7486 24.2762 22.9871 24.1004 23.1629C23.9246 23.3387 23.6861 23.4375 23.4375 23.4375H6.5625C6.31386 23.4375 6.0754 23.3387 5.89959 23.1629C5.72377 22.9871 5.625 22.7486 5.625 22.5V18.75C5.625 18.5014 5.52623 18.2629 5.35041 18.0871C5.1746 17.9113 4.93614 17.8125 4.6875 17.8125C4.43886 17.8125 4.2004 17.9113 4.02459 18.0871C3.84877 18.2629 3.75 18.5014 3.75 18.75V22.5C3.75 23.2459 4.04632 23.9613 4.57376 24.4887C5.10121 25.0162 5.81658 25.3125 6.5625 25.3125H23.4375C24.1834 25.3125 24.8988 25.0162 25.4262 24.4887C25.9537 23.9613 26.25 23.2459 26.25 22.5ZM20.2688 17.6063L15.5813 21.3563C15.4157 21.487 15.211 21.5582 15 21.5582C14.789 21.5582 14.5843 21.487 14.4187 21.3563L9.73125 17.6063C9.56045 17.445 9.45639 17.2256 9.43966 16.9913C9.42292 16.757 9.49473 16.525 9.64088 16.3411C9.78702 16.1573 9.99686 16.035 10.2289 15.9984C10.4609 15.9619 10.6982 16.0137 10.8937 16.1437L14.0625 18.675V5.625C14.0625 5.37636 14.1613 5.1379 14.3371 4.96209C14.5129 4.78627 14.7514 4.6875 15 4.6875C15.2486 4.6875 15.4871 4.78627 15.6629 4.96209C15.8387 5.1379 15.9375 5.37636 15.9375 5.625V18.675L19.1062 16.1437C19.2007 16.0546 19.3125 15.9861 19.4348 15.9425C19.5571 15.8989 19.6871 15.8811 19.8166 15.8904C19.9461 15.8996 20.0722 15.9357 20.1871 15.9962C20.3019 16.0568 20.4029 16.1405 20.4837 16.2421C20.5644 16.3438 20.6232 16.4611 20.6563 16.5866C20.6894 16.7121 20.6961 16.8432 20.6758 16.9714C20.6556 17.0996 20.609 17.2223 20.539 17.3316C20.4689 17.4408 20.3769 17.5344 20.2688 17.6063Z" fill="black"></path></svg>