<svg width="42" height="46" viewBox="0 0 42 46" xmlns="http://www.w3.org/2000/svg">
    <path d="M35.525 18.166v4.436l4.417 4.11c.164.153.517.517 1.058 1.095l-5.477 1.38v9.391h-9.476V45H9.497c.192-.829.298-1.275.318-1.34 1.428-6.476-1.189-9.93-3.866-13.461C3.496 26.963 1 23.667 1 18.166c0-4.74 1.932-9.031 5.057-12.138A17.258 17.258 0 0 1 18.263 1c4.767 0 9.082 1.92 12.206 5.028a17.066 17.066 0 0 1 5.057 12.138h-.001zm-19.92-4.62a3.27 3.27 0 0 0-2.312-.949c-.84 0-1.678.317-2.312.949a3.233 3.233 0 0 0-.954 2.299c0 .834.318 1.669.954 2.3l6.966 6.928 6.968-6.929a3.233 3.233 0 0 0 .954-2.3c0-.834-.319-1.668-.954-2.298a3.272 3.272 0 0 0-2.312-.953v.004c-.84 0-1.679.317-2.313.949l-2.352 1.9-2.333-1.9zm1.466-1.46.875.87.875-.87a5.346 5.346 0 0 1 3.779-1.551v.004a5.34 5.34 0 0 1 3.779 1.548 5.283 5.283 0 0 1 1.56 3.758c0 1.361-.52 2.723-1.56 3.757l-8.435 8.15-8.432-8.15a5.285 5.285 0 0 1-1.56-3.757c0-1.362.52-2.724 1.56-3.758a5.344 5.344 0 0 1 3.78-1.552c1.369 0 2.738.517 3.778 1.552zm16.378 6.078c0-4.17-1.7-7.946-4.449-10.68a15.184 15.184 0 0 0-10.74-4.423A15.18 15.18 0 0 0 7.521 7.485a15.013 15.013 0 0 0-4.448 10.68c0 4.816 2.285 7.832 4.528 10.792 2.807 3.704 5.555 7.332 4.457 13.98H23.97v-6.42h9.478v-8.183l.003-.592 3.584-.922-3.518-3.403-.07-5.253z" fill="#000" fill-rule="nonzero" stroke="#000" stroke-width=".8"/>
</svg>
