<svg width="59" height="70" viewBox="0 0 59 70" xmlns="http://www.w3.org/2000/svg">
    <path d="M29.372 15.855h.253c1.862 0 3.386-.75 4.486-1.919 2.37-2.586 2.032-6.757 1.947-7.425-.254-5.256-4.232-6.59-6.602-6.507-2.37-.084-6.348 1.25-6.602 6.507-.084.668-.423 4.839 1.947 7.425 1.186 1.168 2.794 1.835 4.571 1.919zm-3.3-9.178v-.083c.169-3.253 2.37-3.587 3.216-3.587h.254c.761 0 3.216.167 3.385 3.587v.083c.084.918.084 3.671-1.185 5.09-.508.584-1.27.917-2.286.917-1.015 0-1.692-.333-2.2-.917-1.27-1.335-1.27-4.089-1.185-5.09zM51.378 17.19c-.678-.25-1.44-.083-1.862.5l-2.455 3.337-2.454-3.337c-.423-.584-1.185-.834-1.862-.5-.084 0-2.285.918-4.402 2.253-2.116-1.335-4.232-2.253-4.401-2.253-.677-.25-1.439-.083-1.862.5l-2.454 3.337-2.455-3.337c-.423-.584-1.185-.834-1.862-.5-.084 0-2.285.918-4.401 2.253-2.116-1.335-4.317-2.253-4.402-2.253-.677-.25-1.438-.083-1.862.5l-2.454 3.337-2.454-3.337c-.424-.584-1.185-.834-1.862-.5-.085.083-2.878 1.168-5.163 2.836-.678.5-.932.751-1.524 1.335C-.928 23.447.342 31.873.765 33.375c.677 2.503 2.54 5.84 2.793 6.34.338.751.508 1.502.593 2.337L7.282 70h9.225l3.64-27.948c.085-.835.254-1.586.593-2.336 0-.084.085-.167.085-.25.084.083.084.166.084.25.338.75.508 1.501.593 2.336L24.582 70h9.785l3.131-27.948c.085-.835.254-1.586.593-2.336 0-.084.084-.167.084-.25.085.083.085.166.085.25.338.75.508 1.501.593 2.336L42.153 70h9.226l3.47-27.948c.085-.835.254-1.586.593-2.336.338-.5 2.116-3.922 2.793-6.34.423-1.586 1.693-9.929-.423-12.015-.339-.5-.592-.834-1.27-1.335-2.286-1.668-5.079-2.753-5.163-2.836zM17.777 38.464c-.508 1.085-.762 2.17-.932 3.337l-2.623 25.112H9.736L7.112 41.801c-.084-1.168-.423-2.253-.931-3.337 0-.083-.084-.083-.084-.167 0 0-1.947-3.42-2.54-5.757-.677-2.503-.93-8.009-.338-9.093.423-.417.677-.584 1.1-.918 1.101-.834 2.455-1.501 3.386-1.919l4.316 5.397 4.317-5.397c.507.25 1.185.585 1.862 1.001-1.778 2.503-.593 10.262-.17 11.764.254.834.593 1.752.931 2.586-.507 1.335-1.1 2.336-1.1 2.336 0 .083-.084.083-.084.167zm16.589 3.337-2.624 25.112h-4.486l-2.623-25.112c-.085-1.168-.424-2.253-.932-3.337 0-.083-.084-.083-.084-.167 0 0-1.947-3.42-2.54-5.757-.677-2.503-.93-8.009-.338-9.093.424-.417.678-.584 1.1-.918 1.101-.834 2.455-1.501 3.386-1.919l4.317 5.417 4.316-5.417c.931.418 2.2 1.085 3.385 1.92.424.333.678.5 1.1.917.594 1.085.34 6.507-.337 9.093-.593 2.253-2.54 5.673-2.54 5.757-.17.084-.17.084-.17.167-.507 1.085-.76 2.17-.93 3.337zm18.451-3.503c0 .083-.084.083-.084.167-.508 1.085-.762 2.169-.931 3.337l-2.624 25.112h-4.486L42.07 41.802c-.085-1.168-.424-2.253-.932-3.337 0-.083-.084-.083-.084-.167 0 0-.593-1.001-1.185-2.336.423-.918.762-1.753.931-2.586.424-1.502 1.609-9.26-.17-11.764.678-.417 1.355-.75 1.863-1l4.316 5.297 4.317-5.298c.93.417 2.2 1.085 3.385 1.919.423.333.677.5 1.1.918.678 1.167.508 6.59-.253 9.093-.593 2.253-2.54 5.673-2.54 5.757zm-5.924-22.443h.253c1.862 0 3.385-.75 4.486-1.918 2.37-2.586 2.032-6.758 1.947-7.426-.254-5.256-4.232-6.59-6.602-6.507-2.37-.083-6.348 1.251-6.602 6.507-.085.668-.424 4.84 1.946 7.426 1.186 1.167 2.71 1.834 4.572 1.918zm-3.301-9.177v-.083c.17-3.254 2.37-3.587 3.216-3.587h.254c.762 0 3.217.167 3.385 3.587v.083c.085.918.085 3.67-1.184 5.089-.508.584-1.27.918-2.286.918-1.015 0-1.693-.334-2.2-.918-1.27-1.335-1.27-4.088-1.185-5.09zm-31.656 9.177h.253c1.863-.083 3.386-.75 4.486-1.918 2.37-2.586 2.032-6.758 1.947-7.426-.254-5.256-4.232-6.59-6.602-6.507-2.37-.083-6.348 1.251-6.602 6.507-.084.668-.423 4.84 1.947 7.426 1.186 1.167 2.709 1.834 4.571 1.918zm-3.3-9.177v-.083c.169-3.254 2.37-3.587 3.216-3.587h.254c.761 0 3.216.167 3.385 3.587v.083c.084.918.084 3.754-1.185 5.089-.508.584-1.27.918-2.2.918-1.016 0-1.693-.334-2.201-.918-1.354-1.335-1.354-4.088-1.27-5.09z" fill="#000" fill-rule="nonzero"/>
</svg>
