<svg width="40" height="40" viewBox="0 0 40 40" xmlns="http://www.w3.org/2000/svg">
    <g fill="none" fill-rule="evenodd">
        <path d="M0 0h40v40H0z"/>
        <path d="M20 8C11.737 8 5 14.81 5 23.164A15.2 15.2 0 0 0 7.826 32l2.758-2.202a11.665 11.665 0 0 1-2.055-6.634c0-6.426 5.115-11.596 11.471-11.596s11.47 5.17 11.47 11.596c0 2.47-.762 4.757-2.053 6.634L32.174 32A15.203 15.203 0 0 0 35 23.164C35 14.81 28.263 8 20 8zm0 8.028-2.206 11.15c0 1.231.988 2.23 2.206 2.23 1.219 0 2.206-.999 2.206-2.23L20 16.028z" fill="#000" fill-rule="nonzero"/>
    </g>
</svg>
