<svg width="40" height="40" viewBox="0 0 40 40" xmlns="http://www.w3.org/2000/svg">
    <g fill="none" fill-rule="evenodd">
        <path d="M0 0h40v40H0z"/>
        <path d="M35.19 11.03a8.566 8.566 0 0 0-3.177-3.64 8.667 8.667 0 0 0-4.657-1.358 8.882 8.882 0 0 0-6.239 2.602c-.384.38-.736.793-1.184 1.269-.48-.508-.864-.984-1.311-1.396C16.894 6.825 14.91 6 12.735 6a8.984 8.984 0 0 0-2.432.318 8.52 8.52 0 0 0-4.53 2.998A8.402 8.402 0 0 0 4 14.424c-.032 2.57.991 4.728 2.815 6.504 3.135 3.141 6.303 6.282 9.47 9.392A403.764 403.764 0 0 1 19.965 34c.16-.159.256-.222.352-.317l12.861-12.755a8.27 8.27 0 0 0 .864-.983c2.044-2.76 2.59-5.775 1.148-8.916zm-2.996 7.653c-.205.27-.429.525-.67.764L19.972 30.973l-2.106-2.102-3.283-3.28c-2.01-2.005-4.117-4.075-6.159-6.144-1.436-1.465-2.138-3.089-2.138-4.936 0-1.363.45-2.688 1.28-3.77a6.217 6.217 0 0 1 3.315-2.216 7.455 7.455 0 0 1 1.883-.255c1.595 0 3.031.605 4.34 1.879.26.251.504.517.734.796.16.16.319.35.478.51l1.628 1.75 1.659-1.734.447-.478c.255-.287.478-.51.702-.732a6.597 6.597 0 0 1 4.595-1.975 6.359 6.359 0 0 1 3.437 1.015 6.337 6.337 0 0 1 2.339 2.71c1.018 2.246.73 4.443-.929 6.671z" stroke="#000" stroke-width=".96" fill="#000" fill-rule="nonzero"/>
    </g>
</svg>
