<?xml version="1.0" encoding="UTF-8"?>
<svg width="50px" height="50px" viewBox="0 0 50 50" version="1.1" xmlns="http://www.w3.org/2000/svg" xmlns:xlink="http://www.w3.org/1999/xlink">
    <title>56CA5741-1B9E-41A0-BF57-8773603CC9E8</title>
    <g id="Page-1" stroke="none" stroke-width="1" fill="none" fill-rule="evenodd">
        <g id="Asset-and-wealth-Product-icons" transform="translate(-375.000000, -2544.000000)">
            <g id="Group-2" transform="translate(375.000000, 2544.000000)">
                <g id="linkedin-copy" fill="#000000">
                    <circle id="Oval-Copy-2" cx="25" cy="25" r="25"></circle>
                </g>
                <g id="Solid-/-Brands-/Instagram" transform="translate(10.000000, 10.000000)" fill="#FFFFFF">
                    <g id="Instagram" transform="translate(2.500000, 2.500000)">
                        <path d="M12.5,8.4375625 C10.256375,8.4375625 8.4375,10.256375 8.4375,12.5 C8.4375,14.74375 10.256375,16.5625 12.5,16.5625 C14.743625,16.5625 16.5625,14.74375 16.5625,12.5 C16.5625,10.256375 14.743625,8.4375625 12.5,8.4375625 Z" id="Path" fill-rule="nonzero"></path>
                        <path d="M5.961925,1.3518875 C10.272125,0.870175 14.728,0.870175 19.038125,1.3518875 C21.411125,1.6171125 23.325125,3.4868375 23.603625,5.86815 C24.119,10.274375 24.119,14.72575 23.603625,19.132 C23.325125,21.51325 21.411125,23.383 19.038125,23.64825 C14.728,24.13 10.272125,24.13 5.961925,23.64825 C3.588925,23.383 1.6749375,21.51325 1.3964125,19.132 C0.8810625,14.72575 0.8810625,10.274375 1.3964125,5.86815 C1.6749375,3.4868375 3.588925,1.6171125 5.961925,1.3518875 Z M18.75,5.0000625 C18.059625,5.0000625 17.5,5.5597 17.5,6.2500625 C17.5,6.9404125 18.059625,7.5000625 18.75,7.5000625 C19.440375,7.5000625 20,6.9404125 20,6.2500625 C20,5.5597 19.440375,5.0000625 18.75,5.0000625 Z M6.5625,12.5 C6.5625,9.2208625 9.2208125,6.5625625 12.5,6.5625625 C15.77925,6.5625625 18.4375,9.2208625 18.4375,12.5 C18.4375,15.77925 15.77925,18.4375 12.5,18.4375 C9.2208125,18.4375 6.5625,15.77925 6.5625,12.5 Z" id="Shape"></path>
                    </g>
                </g>
            </g>
        </g>
    </g>
</svg>