<svg width="53" height="53" viewBox="0 0 53 53" xmlns="http://www.w3.org/2000/svg">
    <g fill="#000" fill-rule="nonzero" stroke="#FFF" stroke-width="1.5">
        <path d="M1 25.192h24.192V1H1v24.192zM6.23 6.231h13.731v13.73H6.231V6.232zM52 1H27.808v24.193H52V1zm-5.23 18.962H33.039V6.23h13.73v13.73zM1 52h24.192V27.808H1V52zm5.23-18.962h13.731V46.77H6.231V33.04zM39.904 52C46.574 52 52 46.573 52 39.904c0-6.67-5.427-12.096-12.096-12.096-6.67 0-12.096 5.427-12.096 12.096 0 6.67 5.427 12.096 12.096 12.096zm0-18.962a6.865 6.865 0 0 1 6.865 6.866 6.865 6.865 0 0 1-6.865 6.865 6.865 6.865 0 0 1-6.866-6.865 6.865 6.865 0 0 1 6.866-6.866z"/>
    </g>
</svg>
