<svg width="46" height="42" viewBox="0 0 46 42" xmlns="http://www.w3.org/2000/svg">
    <g fill="#000" fill-rule="nonzero">
        <path d="M10.77 5.314c1.286-.523 1.91-2.004 1.396-3.309L11.374 0l-.637.258C9.45.78 8.826 2.261 9.34 3.568l.795 2.005.635-.259zM7.694 8.747a2.582 2.582 0 0 0 .588-3.59l-1.27-1.773-.568.408a2.582 2.582 0 0 0-.588 3.59l1.268 1.774.57-.409zM3.645 7.564l-.45.533a2.594 2.594 0 0 0 .283 3.622l1.638 1.418.449-.534a2.588 2.588 0 0 0-.283-3.621L3.645 7.564zM.872 13.356c-.639 1.249-.125 2.767 1.152 3.396l1.965.964.316-.617c.64-1.249.124-2.767-1.152-3.397l-1.962-.963-.32.617zM.065 18.787c-.316 1.363.556 2.72 1.952 3.03l2.143.477.156-.674c.316-1.363-.559-2.719-1.951-3.03L.22 18.114l-.156.673zM5.177 26.634l-.012-.686c-.027-1.383-1.193-2.483-2.6-2.46l-2.167.04.013.685c.026 1.383 1.19 2.484 2.598 2.46l2.168-.04zM5.282 31.166l2.086-.554-.18-.667a2.543 2.543 0 0 0-3.11-1.793l-2.087.553.18.667a2.542 2.542 0 0 0 3.11 1.794zM10.554 34.04l-.339-.63a2.565 2.565 0 0 0-3.51-1.039l-1.926 1.07.341.629a2.565 2.565 0 0 0 3.51 1.037l1.924-1.068zM13.858 36.083a2.576 2.576 0 0 0-3.671-.157l-1.624 1.51.48.53a2.578 2.578 0 0 0 3.67.156l1.625-1.512-.48-.527zM14.553 38.57l-1.211 1.819.587.386a2.589 2.589 0 0 0 3.578-.72l1.212-1.818-.588-.388a2.593 2.593 0 0 0-3.578.722zM14.934 6.78a2.002 2.002 0 0 0-2.853.443l-.332.462 1.393 1.06a2.005 2.005 0 0 0 2.855-.44l.332-.464-1.395-1.061zM13.74 9.779l-1.636-.665c-1.06-.432-2.282.059-2.725 1.098l-.219.513 1.634.663c1.063.432 2.282-.059 2.725-1.096l.221-.513zM11.664 12.79l.085-.557-1.738-.266a2.066 2.066 0 0 0-2.359 1.718l-.085.556 1.737.266a2.068 2.068 0 0 0 2.36-1.717zM6.58 17.544l.048.57 1.697-.156c1.105-.102 1.92-1.115 1.823-2.262l-.049-.568-1.699.156c-1.104.1-1.92 1.113-1.82 2.26zM6.486 21.554l.184.54 1.678-.576a2.097 2.097 0 0 0 1.296-2.663l-.186-.542-1.676.577a2.097 2.097 0 0 0-1.295 2.664zM7.788 25.877l1.442-.927a2.02 2.02 0 0 0 .605-2.79l-.298-.463-1.443.926a2.022 2.022 0 0 0-.604 2.792l.298.462zM9.803 29.46l1.19-1.272a2.082 2.082 0 0 0-.081-2.917l-.403-.39-1.19 1.273a2.082 2.082 0 0 0 .081 2.918l.403.388zM11.967 31.97l.475.276.838-1.513c.546-.985.208-2.231-.756-2.79l-.474-.275-.838 1.513c-.543.983-.206 2.232.755 2.788zM15.242 34.286l.539.15.471-1.685a2.064 2.064 0 0 0-1.421-2.542l-.54-.152-.473 1.687a2.06 2.06 0 0 0 1.424 2.542zM19.46 35.83l.054-1.788c.037-1.165-.847-2.135-1.973-2.174l-.559-.02-.054 1.79c-.038 1.162.846 2.136 1.973 2.173l.558.018zM35.668 5.573l.792-2.006c.516-1.304-.11-2.785-1.396-3.309L34.429 0l-.794 2.006c-.515 1.303.11 2.784 1.395 3.309l.638.258zM39.554 3.792l-.567-.408-1.268 1.774a2.579 2.579 0 0 0 .588 3.59l.567.408 1.268-1.775a2.577 2.577 0 0 0-.588-3.59zM42.358 7.564l-1.641 1.418a2.592 2.592 0 0 0-.283 3.621l.449.534 1.638-1.418a2.596 2.596 0 0 0 .286-3.622l-.45-.533zM41.497 16.9l.315.617 1.963-.964c1.278-.627 1.794-2.145 1.153-3.396l-.313-.617-1.966.963c-1.279.628-1.794 2.148-1.152 3.397zM45.779 18.114l-2.143.476c-1.396.309-2.268 1.664-1.952 3.03l.156.674 2.144-.476c1.392-.31 2.267-1.666 1.951-3.03l-.156-.674zM40.636 25.948l-.013.686 2.166.039c1.41.025 2.574-1.077 2.6-2.46l.014-.685-2.166-.04c-1.41-.026-2.575 1.075-2.6 2.46zM38.612 29.946l-.18.666 2.089.554a2.546 2.546 0 0 0 3.11-1.793l.179-.668-2.088-.553a2.544 2.544 0 0 0-3.11 1.794zM35.787 33.41l-.341.628 1.926 1.07a2.566 2.566 0 0 0 3.51-1.038l.339-.628-1.924-1.07a2.564 2.564 0 0 0-3.51 1.037zM32.144 36.084l-.482.528 1.626 1.51a2.575 2.575 0 0 0 3.667-.156l.482-.528-1.623-1.51a2.57 2.57 0 0 0-3.67.156zM27.869 37.85l-.588.388 1.21 1.817a2.592 2.592 0 0 0 3.58.72l.587-.386-1.212-1.817a2.588 2.588 0 0 0-3.577-.722zM31.064 6.78 29.67 7.84l.332.464a2.002 2.002 0 0 0 2.853.442l1.395-1.061-.332-.462a2.005 2.005 0 0 0-2.855-.443zM33.893 9.114l-1.633.664.219.514c.442 1.037 1.663 1.529 2.725 1.096l1.636-.663-.222-.513c-.442-1.04-1.66-1.53-2.725-1.098zM35.986 11.967l-1.735.266.085.557a2.067 2.067 0 0 0 2.362 1.716l1.735-.265-.085-.556a2.067 2.067 0 0 0-2.362-1.718zM37.497 15.284l-1.794-.156-.05.568c-.103 1.147.755 2.16 1.922 2.262l1.794.156.051-.57c.104-1.145-.757-2.158-1.923-2.26zM39.515 21.554a2.102 2.102 0 0 0-1.299-2.664l-1.676-.577-.184.542a2.097 2.097 0 0 0 1.297 2.663l1.676.577.186-.541zM38.51 25.415a2.022 2.022 0 0 0-.605-2.792l-1.441-.926-.298.463a2.018 2.018 0 0 0 .605 2.79l1.44.927.3-.462zM36.601 29.072c.818-.78.852-2.088.081-2.918l-1.19-1.272-.405.389a2.083 2.083 0 0 0-.08 2.917l1.186 1.272.408-.388zM33.95 27.668l-.476.278c-.96.557-1.3 1.805-.756 2.788l.838 1.512.476-.276c.963-.558 1.3-1.805.756-2.788l-.838-1.514zM31.172 30.209a2.061 2.061 0 0 0-1.424 2.541l.474 1.686.539-.153a2.055 2.055 0 0 0 1.42-2.54l-.47-1.686-.54.152zM29.073 33.637l-.058-1.789-.555.02c-1.128.039-2.009 1.012-1.974 2.174l.057 1.787.556-.018c1.127-.037 2.008-1.01 1.974-2.174z"/>
        <path d="M24.509 38.014c.134-.025.261-.057.398-.072C34.945 36.838 42.213 27.78 41.11 17.749A18.368 18.368 0 0 0 30.378 3.043a.64.64 0 0 0-.849.324.641.641 0 0 0 .324.849 17.076 17.076 0 0 1 9.978 13.673c1.026 9.326-5.732 17.748-15.064 18.774a7.276 7.276 0 0 0-1.86.462 7.184 7.184 0 0 0-1.863-.462c-5.983-.658-11.23-4.475-13.684-9.97a16.887 16.887 0 0 1-.362-13.017 16.904 16.904 0 0 1 8.96-9.457c.325-.145.47-.525.325-.849-.147-.324-.527-.47-.851-.324A18.18 18.18 0 0 0 5.796 13.22a18.164 18.164 0 0 0 .39 14.003c2.642 5.907 8.282 10.014 14.718 10.723.134.015.261.048.396.07a7.238 7.238 0 0 0-2.445 3.1.644.644 0 0 0 1.19.488 5.936 5.936 0 0 1 2.863-3.06 5.95 5.95 0 0 1 2.863 3.06.646.646 0 0 0 .84.35.637.637 0 0 0 .346-.839 7.235 7.235 0 0 0-2.447-3.1h-.001z"/>
    </g>
</svg>
