<svg width="50" height="50" viewBox="0 0 50 50" xmlns="http://www.w3.org/2000/svg">
    <g fill="none" fill-rule="evenodd">
        <circle fill="#000" cx="25" cy="25" r="25"/>
        <g fill="#FFF" fill-rule="nonzero">
            <path d="M18.344 13.11a2.39 2.39 0 1 0 0 4.78 2.39 2.39 0 0 0 0-4.78zM16.094 19.86a.14.14 0 0 0-.14.14v14.625c0 .078.062.14.14.14h4.5a.14.14 0 0 0 .14-.14V20a.14.14 0 0 0-.14-.14h-4.5zM23.406 19.86a.14.14 0 0 0-.14.14v14.625c0 .078.063.14.14.14h4.5a.14.14 0 0 0 .14-.14V26.75a2.109 2.109 0 1 1 4.22 0v7.875c0 .078.063.14.14.14h4.5a.14.14 0 0 0 .14-.14v-9.697c0-2.73-2.374-4.866-5.09-4.62a8.064 8.064 0 0 0-2.44.617l-1.47.63V20a.14.14 0 0 0-.14-.14h-4.5z"/>
        </g>
    </g>
</svg>
