<svg width="57" height="57" viewBox="0 0 57 57" xmlns="http://www.w3.org/2000/svg">
    <g fill="#000" fill-rule="nonzero" stroke="#FFF" stroke-width=".945">
        <path d="M46.517 33.24v-2.35H26.111V10.482h-2.35C11.211 10.483 1 20.69 1 33.239 1 45.79 11.21 56 23.761 56c12.548 0 22.756-10.21 22.756-22.76zm-25.105 0v2.349h20.254c-1.155 8.854-8.744 15.713-17.904 15.713-9.96 0-18.062-8.103-18.062-18.063 0-9.16 6.86-16.749 15.712-17.904v17.904z"/>
        <path d="M33.652 25.655H56v-2.307C56 11.026 45.975 1 33.652 1h-2.307V25.655h2.307zm2.307-19.89C43.897 6.8 50.201 13.102 51.237 21.04H35.96V5.764z"/>
    </g>
</svg>
