<svg width="40" height="40" viewBox="0 0 40 40" xmlns="http://www.w3.org/2000/svg">
    <g fill="#FFF" fill-rule="evenodd">
        <path d="M12.917 12.5a7.083 7.083 0 1 1 14.166 0 7.083 7.083 0 0 1-14.166 0zM20 7.917a4.583 4.583 0 1 0 0 9.166 4.583 4.583 0 0 0 0-9.166zM13.333 24.583a3.75 3.75 0 0 0-3.75 3.75v1.98c0 .031.022.057.052.062a64.321 64.321 0 0 0 20.73 0 .061.061 0 0 0 .052-.061v-1.98a3.75 3.75 0 0 0-3.75-3.75h-.569a.421.421 0 0 0-.129.02l-1.442.471c-2.942.96-6.112.96-9.054 0l-1.442-.471a.42.42 0 0 0-.13-.02h-.568zm-6.25 3.75a6.25 6.25 0 0 1 6.25-6.25h.568c.308 0 .613.049.906.144l1.442.472c2.437.795 5.064.795 7.502 0l1.442-.472a2.92 2.92 0 0 1 .905-.144h.569a6.25 6.25 0 0 1 6.25 6.25v1.98c0 1.256-.91 2.327-2.15 2.529a66.825 66.825 0 0 1-21.535 0 2.562 2.562 0 0 1-2.149-2.528v-1.98z"/>
    </g>
</svg>
