<svg width="73" height="72" viewBox="0 0 73 72" fill="none" xmlns="http://www.w3.org/2000/svg">
<path d="M36.1016 0C28.9815 0 22.0212 2.11136 16.1011 6.06709C10.1809 10.0228 5.56667 15.6453 2.84192 22.2234C0.117161 28.8015 -0.595759 36.0399 0.793309 43.0233C2.18238 50.0066 5.61104 56.4212 10.6457 61.4558C15.6804 66.4905 22.095 69.9192 29.0783 71.3083C36.0616 72.6973 43.3 71.9844 49.8782 69.2597C56.4563 66.5349 62.0788 61.9207 66.0345 56.0005C69.9902 50.0804 72.1016 43.1201 72.1016 36C72.0926 26.455 68.2968 17.3035 61.5475 10.5541C54.7981 3.80474 45.6466 0.009002 36.1016 0ZM36.1016 4.4C42.3515 4.4 48.461 6.25331 53.6576 9.72556C58.8542 13.1978 62.9044 18.1331 65.2962 23.9072C67.6879 29.6813 68.3137 36.0351 67.0944 42.1649C65.8751 48.2947 62.8655 53.9252 58.4462 58.3446C54.0268 62.7639 48.3962 65.7735 42.2664 66.9928C36.1366 68.2121 29.7829 67.5863 24.0088 65.1946C18.2346 62.8029 13.2994 58.7526 9.82714 53.556C6.35489 48.3594 4.50158 42.2499 4.50158 36C4.49658 31.8488 5.31052 27.7374 6.8968 23.9013C8.48308 20.0651 10.8105 16.5796 13.7459 13.6443C16.6812 10.7089 20.1667 8.3815 24.0029 6.79522C27.839 5.20894 31.9504 4.395 36.1016 4.4ZM28.0766 15.551V56.451L53.7256 36L28.0766 15.551Z" fill="white"/>
</svg>
