<svg width="55" height="66" viewBox="0 0 55 66" xmlns="http://www.w3.org/2000/svg">
    <g fill="#000" fill-rule="nonzero" stroke="#000">
        <path d="M41.854 19.757V18.39h-11.88V6.517h-1.368c-7.307 0-13.252 5.94-13.252 13.24C15.354 27.059 21.298 33 28.606 33c7.305 0 13.248-5.94 13.248-13.243zm-14.616 0v1.367H39.03c-.673 5.151-5.091 9.142-10.424 9.142-5.798 0-10.515-4.714-10.515-10.509 0-5.33 3.993-9.745 9.147-10.417v10.417z" stroke-width=".55"/>
        <path d="M34.364 15.345h13.011v-1.343C47.375 6.833 41.538 1 34.364 1h-1.343v14.345h1.343zm1.343-11.573c4.621.603 8.292 4.27 8.895 8.888h-8.895V3.772z" stroke-width=".55"/>
        <path d="M46.644 38.299c-.06.058-.12.116-.12.174-3.236 4.018-8.87 10.656-10.308 11.413-.24.116-2.45 1.46-5.334 1.158-1.923-.203-3.213-.589-3.872-1.158 4.62-.388 7.708-1.029 9.266-1.921 2.277-1.32 3.2-3.572 2.77-6.755l-26.279-.059L1 52.621 14.101 65l6.113-6.264c8.627 1.728 15.053 1.559 19.277-.508 4.224-2.068 8.872-7.397 13.944-15.988.3-.233 1.365-1.75-.558-3.826-3.345-2.855-6.113-.232-6.233-.115zM39.41 55.67c-3.4 2.033-10.127 2.298-20.18.794l-5.129 5.357-9.709-9.2 9.29-9.025h23.133c-.12.757-.539 1.747-1.737 2.445-1.901 1.074-6.064 1.81-12.488 2.21 1.783 3.385 4.536 5.077 8.26 5.077 4.496 0 5.605-.953 6.566-1.406 2.217-1.223 9.289-9.898 10.907-11.936.3-.233 1.311-1.438 2.649-.355 1.337 1.083.108 2.223.108 2.398-.06.058-6.568 10.592-11.67 13.641z" stroke-width=".88"/>
    </g>
</svg>
