<svg width="42" height="44" viewBox="0 0 42 44" xmlns="http://www.w3.org/2000/svg">
    <g fill="none" fill-rule="evenodd">
        <path d="M1 4.747h40V44H1z"/>
        <path d="m21.185 41.044-16.91-16.91 5.635-5.636-.152-.152a3.881 3.881 0 0 1-1.023-3.718 3.762 3.762 0 0 1 2.695-2.695 3.881 3.881 0 0 1 3.718 1.023l.152.152 5.628-5.627 5.722 5.722.152-.152a3.806 3.806 0 0 1 3.665-.886 3.925 3.925 0 0 1 2.696 2.696 3.806 3.806 0 0 1-.886 3.665l-.152.152 5.713 5.713-6.802 6.801-1.584-1.584a2.196 2.196 0 0 0-2.104-.578 2.129 2.129 0 0 0-1.524 1.525c-.196.748.025 1.55.578 2.103l1.584 1.584-6.801 6.802zM6.633 24.15l14.534 14.534 4.485-4.485a3.914 3.914 0 0 1-1.55-2.675 3.794 3.794 0 0 1 .889-2.926 3.777 3.777 0 0 1 2.76-1.305 3.898 3.898 0 0 1 2.865 1.15c.132.133.256.274.37.423l4.484-4.485-5.719-5.719 1.332-1.331a2.155 2.155 0 0 0 .487-2.067 2.222 2.222 0 0 0-1.518-1.519 2.155 2.155 0 0 0-2.068.487l-1.32 1.32-5.716-5.717-5.634 5.634-1.34-1.34a2.196 2.196 0 0 0-2.104-.579 2.128 2.128 0 0 0-1.525 1.525c-.195.748.025 1.55.579 2.103l1.338 1.339-5.63 5.633z" stroke="#000" stroke-width="1.5" fill="#000" fill-rule="nonzero"/>
    </g>
</svg>
