<svg width="71" height="53" viewBox="0 0 71 53" xmlns="http://www.w3.org/2000/svg">
    <path d="M21.488 12.425.708 29.975l2.147 2.594 9.857-8.322v27.054A1.702 1.702 0 0 0 14.42 53h43.868c.94-.008 1.7-.77 1.708-1.714V25.063l8.537 7.441 2.235-2.517-20.553-18.041-2.6-2.267L37.472.867a1.69 1.69 0 0 0-2.21 0l-11.136 9.392-2.637 2.166zM36.341 4.38 56.62 22.004v27.494H31.895V37.425c0-1.195.473-2.341 1.317-3.187a4.49 4.49 0 0 1 3.178-1.32 4.476 4.476 0 0 1 3.178 1.312 4.5 4.5 0 0 1 1.317 3.183v7.969h3.402V37.5a7.93 7.93 0 0 0-2.317-5.59 7.887 7.887 0 0 0-5.58-2.316 7.887 7.887 0 0 0-5.58 2.33 7.923 7.923 0 0 0-2.305 5.602v12.06H16.163V21.373L36.341 4.379z" fill="#000" fill-rule="nonzero"/>
</svg>
