<svg width="66" height="59" viewBox="0 0 66 59" xmlns="http://www.w3.org/2000/svg">
    <g fill="#000" fill-rule="nonzero">
        <path d="M52.954 19.471a21.014 21.014 0 0 0-4.721-1.243V7.695C48.232 3.308 42.241 0 34.295 0 26.351 0 20.36 3.308 20.36 7.695v8.992c-1.9-.524-4.075-.813-6.424-.813C5.99 15.874 0 19.182 0 23.569v25.97c0 4.386 5.99 7.694 13.936 7.694s13.936-3.308 13.936-7.695v-.18a20.515 20.515 0 0 0 9.9 8.195A20.84 20.84 0 0 0 45.371 59c2.783 0 5.565-.563 8.197-1.697a1.562 1.562 0 0 0 .82-2.056 1.584 1.584 0 0 0-2.073-.814 17.524 17.524 0 0 1-13.384.211c-8.963-3.518-13.369-13.614-9.83-22.512 1.719-4.308 5.03-7.695 9.31-9.54a17.524 17.524 0 0 1 13.384-.211c8.962 3.519 13.376 13.614 9.83 22.512a17.156 17.156 0 0 1-4.438 6.405c-.339.312-.702.61-1.072.899-.126.094-.245.188-.371.281a1.562 1.562 0 0 0-.339 2.19 1.59 1.59 0 0 0 2.207.336c.15-.11.3-.219.442-.336a20.272 20.272 0 0 0 6.495-8.617c4.194-10.502-1.017-22.427-11.595-26.579zM24.712 30.06c0 2.159-4.612 4.567-10.784 4.567-6.172 0-10.783-2.408-10.783-4.567v-1.51c2.514 1.682 6.345 2.715 10.783 2.715s8.269-1.032 10.784-2.714v1.51zm-10.784 7.694c4.438 0 8.269-1.032 10.784-2.713v1.51c0 2.158-4.612 4.566-10.784 4.566-6.172 0-10.783-2.408-10.783-4.567v-1.51c2.515 1.682 6.346 2.714 10.783 2.714zM3.146 41.531c2.514 1.68 6.345 2.714 10.783 2.714 4.437 0 8.268-1.032 10.783-2.714v1.51c0 2.158-4.611 4.566-10.783 4.566S3.146 45.199 3.146 43.04v-1.51zm20.359-27.345v-1.51c2.514 1.681 6.345 2.714 10.783 2.714s8.268-1.032 10.783-2.714v1.51c0 2.158-4.611 4.566-10.783 4.566s-10.783-2.409-10.783-4.566zM34.288 3.128c6.172 0 10.783 2.409 10.783 4.567 0 2.158-4.611 4.567-10.783 4.567S23.505 9.853 23.505 7.695c0-2.158 4.611-4.567 10.783-4.567zm-20.36 15.875c6.171 0 10.783 2.408 10.783 4.566s-4.612 4.567-10.784 4.567c-6.171 0-10.783-2.409-10.783-4.567 0-2.158 4.612-4.566 10.783-4.566zm0 35.102c-6.172 0-10.784-2.409-10.784-4.567v-1.51c2.515 1.682 6.345 2.714 10.783 2.714s8.269-1.032 10.784-2.713v1.51c0 2.15-4.612 4.566-10.784 4.566zm13.935-26.446V23.56c0-.985-.315-1.908-.874-2.76 1.852.602 4.012.977 6.368 1.055a20.474 20.474 0 0 0-5.493 5.803z"/>
        <path d="M60.018 41.531a1.567 1.567 0 0 0-1.3-1.798c-.86-.14-1.672.438-1.814 1.29-.402 2.424-1.584 4.582-3.405 6.256a1.56 1.56 0 0 0-.094 2.213c.307.336.733.508 1.158.508.379 0 .765-.133 1.064-.414 2.35-2.151 3.87-4.935 4.39-8.055zM32.542 33.632a1.563 1.563 0 0 0 1 1.978 1.581 1.581 0 0 0 1.995-.992c.779-2.332 2.287-4.28 4.35-5.651a1.56 1.56 0 0 0 .442-2.171 1.564 1.564 0 0 0-1.064-.682 1.55 1.55 0 0 0-1.117.244c-2.659 1.76-4.6 4.273-5.606 7.274z"/>
    </g>
</svg>
