<svg width="50" height="50" viewBox="0 0 50 50" xmlns="http://www.w3.org/2000/svg">
    <g fill="#010101" fill-rule="nonzero" stroke="#120" stroke-width="1.6">
        <path d="M24.657 16.086c-4.722 0-8.571 3.866-8.571 8.608 0 4.668 3.85 8.535 8.571 8.535 4.722 0 8.572-3.867 8.572-8.608 0-4.669-3.85-8.535-8.572-8.535zm0 15.684c-3.922 0-7.119-3.21-7.119-7.15 0-3.938 3.196-7.148 7.12-7.148 3.922 0 7.118 3.21 7.118 7.149s-3.196 7.149-7.119 7.149z"/>
        <path d="M49 25C49 11.764 38.237 1 25 1S1 11.763 1 25s10.763 24 24 24 24-10.763 24-24zM12.128 43.473c.364-4.8 4.363-8.51 9.164-8.51h7.345c4.873 0 8.8 3.71 9.164 8.51a21.99 21.99 0 0 1-12.8 4.072 22.39 22.39 0 0 1-12.873-4.072zm27.055-.946c-.8-5.09-5.237-8.945-10.546-8.945h-7.272c-5.31 0-9.673 3.855-10.545 8.945C5.729 38.382 2.456 32.054 2.456 25c0-12.436 10.109-22.544 22.545-22.544 12.436 0 22.544 10.108 22.544 22.544 0 7.055-3.272 13.382-8.363 17.527z"/>
    </g>
</svg>
