<svg width="50" height="50" viewBox="0 0 50 50" xmlns="http://www.w3.org/2000/svg">
    <g fill="none" fill-rule="evenodd">
        <circle fill="#000" cx="25" cy="25" r="25"/>
        <path d="M18.736 16.113a80.31 80.31 0 0 1 12.528 0l2.8.22a3.406 3.406 0 0 1 3.095 2.834 35.395 35.395 0 0 1 0 11.666 3.406 3.406 0 0 1-3.094 2.835l-2.801.219a80.3 80.3 0 0 1-12.528 0l-2.8-.22a3.406 3.406 0 0 1-3.095-2.834 35.394 35.394 0 0 1 0-11.666 3.407 3.407 0 0 1 3.094-2.835l2.801-.219zM22.5 28.088v-6.176c0-.291.318-.471.568-.321l5.146 3.087a.375.375 0 0 1 0 .644l-5.146 3.087a.375.375 0 0 1-.568-.321z" fill="#FFF"/>
    </g>
</svg>
